HIERARCHY
ROOT Hips
{
	OFFSET 0.00000 0.00000 0.00000
	CHANNELS 6 Xposition Yposition Zposition Zrotation Yrotation Xrotation 
	JOINT LHipJoint
	{
		OFFSET 0 0 0
		CHANNELS 3 Zrotation Yrotation Xrotation
		JOINT LeftUpLeg
		{
			OFFSET 1.37324 -1.83837 0.85674
			CHANNELS 3 Zrotation Yrotation Xrotation
			JOINT LeftLeg
			{
				OFFSET 2.53826 -6.97383 0.00000
				CHANNELS 3 Zrotation Yrotation Xrotation
				JOINT LeftFoot
				{
					OFFSET 2.65296 -7.28895 0.00000
					CHANNELS 3 Zrotation Yrotation Xrotation
					JOINT LeftToeBase
					{
						OFFSET 0.22100 -0.60718 2.29776
						CHANNELS 3 Zrotation Yrotation Xrotation
						End Site
						{
							OFFSET 0.00000 -0.00000 1.19228
						}
					}
				}
			}
		}
	}
	JOINT RHipJoint
	{
		OFFSET 0 0 0
		CHANNELS 3 Zrotation Yrotation Xrotation
		JOINT RightUpLeg
		{
			OFFSET -1.30156 -1.83836 0.85673
			CHANNELS 3 Zrotation Yrotation Xrotation
			JOINT RightLeg
			{
				OFFSET -2.63627 -7.24310 0.00000
				CHANNELS 3 Zrotation Yrotation Xrotation
				JOINT RightFoot
				{
					OFFSET -2.62024 -7.19904 0.00000
					CHANNELS 3 Zrotation Yrotation Xrotation
					JOINT RightToeBase
					{
						OFFSET -0.20765 -0.57052 2.42402
						CHANNELS 3 Zrotation Yrotation Xrotation
						End Site
						{
							OFFSET -0.00000 -0.00000 1.24980
						}
					}
				}
			}
		}
	}
	JOINT LowerBack
	{
		OFFSET 0 0 0
		CHANNELS 3 Zrotation Yrotation Xrotation
		JOINT Spine
		{
			OFFSET 0.05739 2.14162 -0.22815
			CHANNELS 3 Zrotation Yrotation Xrotation
			JOINT Spine1
			{
				OFFSET 0.02798 2.14167 0.08145
				CHANNELS 3 Zrotation Yrotation Xrotation
				JOINT Neck
				{
					OFFSET 0 0 0
					CHANNELS 3 Zrotation Yrotation Xrotation
					JOINT Neck1
					{
						OFFSET -0.07019 1.58903 0.32980
						CHANNELS 3 Zrotation Yrotation Xrotation
						JOINT Head
						{
							OFFSET -0.03205 1.65283 -0.21190
							CHANNELS 3 Zrotation Yrotation Xrotation
							End Site
							{
								OFFSET -0.00726 1.66788 -0.10849
							}
						}
					}
				}
				JOINT LeftShoulder
				{
					OFFSET 0 0 0
					CHANNELS 3 Zrotation Yrotation Xrotation
					JOINT LeftArm
					{
						OFFSET 3.92858 0.97533 -0.07938
						CHANNELS 3 Zrotation Yrotation Xrotation
						JOINT LeftForeArm
						{
							OFFSET 5.58345 -0.00000 -0.00000
							CHANNELS 3 Zrotation Yrotation Xrotation
							JOINT LeftHand
							{
								OFFSET 3.71087 -0.00000 0.00000
								CHANNELS 3 Zrotation Yrotation Xrotation
								JOINT LeftFingerBase
								{
									OFFSET 0 0 0
									CHANNELS 3 Zrotation Yrotation Xrotation
									JOINT LeftHandIndex1
									{
										OFFSET 0.56232 -0.00000 -0.00000
										CHANNELS 3 Zrotation Yrotation Xrotation
										End Site
										{
											OFFSET 0.45336 -0.00000 -0.00000
										}
									}
								}
								JOINT LThumb
								{
									OFFSET 0 0 0
									CHANNELS 3 Zrotation Yrotation Xrotation
									End Site
									{
										OFFSET 0.46028 -0.00000 0.46028
									}
								}
							}
						}
					}
				}
				JOINT RightShoulder
				{
					OFFSET 0 0 0
					CHANNELS 3 Zrotation Yrotation Xrotation
					JOINT RightArm
					{
						OFFSET -3.89897 1.08887 -0.22589
						CHANNELS 3 Zrotation Yrotation Xrotation
						JOINT RightForeArm
						{
							OFFSET -5.20357 -0.00000 -0.00000
							CHANNELS 3 Zrotation Yrotation Xrotation
							JOINT RightHand
							{
								OFFSET -3.64937 -0.00000 0.00000
								CHANNELS 3 Zrotation Yrotation Xrotation
								JOINT RightFingerBase
								{
									OFFSET 0 0 0
									CHANNELS 3 Zrotation Yrotation Xrotation
									JOINT RightHandIndex1
									{
										OFFSET -0.61800 -0.00000 -0.00000
										CHANNELS 3 Zrotation Yrotation Xrotation
										End Site
										{
											OFFSET -0.49824 -0.00000 -0.00000
										}
									}
								}
								JOINT RThumb
								{
									OFFSET 0 0 0
									CHANNELS 3 Zrotation Yrotation Xrotation
									End Site
									{
										OFFSET -0.50585 -0.00000 0.50585
									}
								}
							}
						}
					}
				}
			}
		}
	}
}
MOTION
Frames: 16
Frame Time: 0.0571429
0.00 0.00 0.00 3.9900 0.3896 19.1499 0.0000 0.0000 0.0000 -27.3959 -0.3370 2.7596 0.7539 5.5456 15.4716 2.4706 -13.4767 -28.4748 0.0681 1.6833 4.6311 0.0000 0.0000 0.0000 10.2299 3.2994 -49.3339 -19.7727 -19.9988 89.3354 -1.7733 4.0142 -24.2193 -0.9726 6.2784 -17.5944 -3.8620 -1.6685 11.8853 0.0318 -2.8308 -2.7847 2.7708 -1.1409 -9.4942 1.5218 2.1084 -27.5466 -3.3301 3.0799 17.0101 -0.9380 1.0988 9.9810 0.0000 -0.0000 0.0000 -85.6269 2.3421 38.1393 47.8976 -52.1116 -24.5049 -0.0000 0.0000 -4.2692 14.1224 5.1190 1.2860 -7.1250 0.0000 -0.0000 -10.4092 35.1012 2.5658 0.0000 -0.0000 0.0000 88.7723 -9.5935 21.4769 -22.7692 33.8355 -7.0094 0.0000 -0.0000 -3.5539 -30.9029 -8.9894 5.3431 7.1250 -0.0000 -0.0000 -3.5128 -40.4017 -0.3988
0.00 0.00 0.00 5.6041 1.3405 21.1270 0.0000 0.0000 0.0000 -27.7560 1.8813 7.3054 0.2502 3.2188 8.8885 1.8116 -16.0302 -25.0402 0.0533 1.4898 4.0976 0.0000 0.0000 0.0000 8.3092 3.1761 -64.3734 -21.6678 -19.9332 94.8816 -1.8919 6.9354 -24.7175 -0.8120 5.7505 -16.0621 -5.4934 -2.2633 15.0334 -0.0377 -4.0511 -2.0333 4.0104 -1.6064 -10.3054 1.5532 2.1664 -29.2530 -2.9645 2.9833 15.3019 -0.8204 1.1026 9.6361 -0.0000 -0.0000 0.0000 -86.1619 -3.0378 37.0879 75.4965 -59.1901 -47.4738 -0.0000 0.0000 -9.3539 18.4112 5.4096 1.7975 -7.1250 0.0000 -0.0000 -6.9137 35.6088 1.6050 -0.0000 -0.0000 0.0000 86.6374 -17.8328 23.7768 -26.0771 37.2848 -8.9343 0.0000 -0.0000 -10.3296 -33.3446 -7.3577 4.8166 7.1250 -0.0000 -0.0000 -5.6594 -38.7086 -0.8804
0.00 0.00 0.00 5.7309 3.1775 22.9900 0.0000 0.0000 0.0000 -26.8200 -0.0672 9.5198 0.1303 2.3266 6.4090 1.6287 -15.8850 -23.8804 0.0624 1.6114 4.4328 0.0000 0.0000 0.0000 8.6750 2.9191 -72.1591 -21.7284 -19.9282 95.0594 -1.9117 6.1570 -24.9099 -1.2314 7.0374 -19.8263 -4.9217 -2.8549 15.9667 0.5039 -4.7240 -2.0088 4.4966 -1.9194 -10.7437 1.2065 1.8851 -30.0462 -2.6804 2.6510 14.6708 -0.7157 0.9616 9.5180 0.0000 -0.0000 0.0000 -86.5099 -6.0084 37.8068 96.6769 -59.8309 -65.7790 -0.0000 0.0000 -10.8941 19.9677 4.7809 1.7345 -7.1250 0.0000 -0.0000 -5.5584 35.0215 1.3674 0.0000 -0.0000 0.0000 84.8857 -25.4033 26.5860 -32.2220 42.7235 -12.8912 0.0000 -0.0000 -10.6333 -34.8684 -5.6847 3.9483 7.1250 -0.0000 -0.0000 -6.9102 -36.8203 -1.3986
0.00 0.00 0.00 5.0144 5.0368 24.5789 0.0000 0.0000 0.0000 -25.2022 -0.6991 14.1494 0.0000 0.0000 0.0000 1.2168 -14.5348 -20.8003 0.0369 1.2405 3.4109 0.0000 0.0000 0.0000 9.7845 2.9008 -77.7748 -21.3433 -19.9567 93.9301 -1.7816 6.6122 -23.9794 -1.4736 7.6707 -21.7182 -2.9215 -3.4336 16.5036 1.3817 -5.0162 -2.0448 4.4493 -2.1298 -11.1475 0.6546 1.6941 -30.1684 -2.7913 2.6179 13.8568 -0.6730 0.9068 9.2410 -0.0000 0.0000 0.0000 -86.2693 -8.4372 39.4650 116.7870 -57.1070 -82.9729 -0.0000 0.0000 -12.4637 21.4228 3.4294 1.3445 -7.1250 0.0000 -0.0000 -4.2495 33.6409 1.1864 -0.0000 0.0000 0.0000 82.4467 -34.5629 30.0990 -42.2845 49.3666 -20.1562 0.0000 -0.0000 -10.4177 -35.6399 -3.0490 2.1840 7.1250 -0.0000 -0.0000 -7.3884 -33.6617 -2.0689
0.00 0.00 0.00 2.9178 7.0120 25.9884 0.0000 0.0000 0.0000 -21.8623 -1.8323 16.4251 0.0000 0.0000 0.0000 1.0333 -13.5157 -19.1805 0.0034 -0.3767 -1.0350 0.0000 0.0000 0.0000 12.8257 3.7653 -80.9926 -20.7771 -19.9855 92.2726 -1.2472 5.8068 -19.9905 -1.7160 8.2476 -23.4688 0.4595 -4.0888 17.3544 3.1049 -4.9754 -1.9839 4.5125 -2.2352 -11.7102 -0.1048 1.9457 -29.8749 -3.6105 3.3947 12.7594 -0.7197 1.1457 8.8306 -0.0000 0.0000 0.0000 -83.8352 -9.3545 41.7981 135.9160 -50.3117 -98.4685 -0.0000 0.0000 -12.5218 23.5116 0.0159 0.0069 -7.1250 0.0000 -0.0000 -2.4074 29.9928 0.8823 -0.0000 0.0000 0.0000 77.7631 -46.0445 35.6932 -59.8050 56.2577 -34.1789 0.0000 -0.0000 -16.2819 -35.6571 -0.1842 0.1322 7.1250 -0.0000 -0.0000 -7.1704 -30.1659 -2.6145
0.00 0.00 0.00 2.0131 5.6890 28.4129 0.0000 0.0000 0.0000 -20.6972 -1.8982 16.0243 0.1443 2.4477 6.7447 -0.0975 -9.2590 -4.5417 1.2302 -7.0340 -19.8162 0.0000 0.0000 0.0000 17.1406 4.9782 -73.0647 -19.8425 -19.9994 89.5395 -1.6060 4.9060 -22.8756 -1.7093 8.2323 -23.4219 1.7226 -3.6522 17.2914 4.2917 -3.9937 -1.6274 4.8259 -1.8180 -11.3385 -1.5238 1.8666 -28.6808 -4.3699 3.8674 10.7732 -0.6946 1.2705 7.9661 0.0000 -0.0000 0.0000 -75.7519 -3.8117 49.1352 147.8221 -42.6885 -107.1387 -0.0000 0.0000 -0.9033 21.2523 -1.6822 -0.6541 -7.1250 0.0000 -0.0000 -4.1208 28.1665 1.6917 0.0000 -0.0000 0.0000 79.5754 -53.2761 32.8020 -70.4873 58.5113 -43.1860 0.0000 -0.0000 -14.6979 -35.5880 1.2655 -0.9055 7.1250 -0.0000 -0.0000 -6.9859 -28.3974 -2.8422
0.00 0.00 0.00 2.9856 4.3828 28.9647 0.0000 0.0000 0.0000 -21.5170 -2.7570 8.2928 1.4397 7.5858 21.4630 -0.1304 -8.4134 8.9046 0.9399 -6.1751 -17.2933 0.0000 0.0000 0.0000 17.7742 4.3312 -65.8436 -18.2446 -19.9260 84.8614 -2.8030 4.8899 -30.6086 -2.0498 8.9691 -25.6987 1.0438 -3.2266 18.3270 3.9177 -3.5800 -1.3984 4.7528 -1.5832 -11.6816 -1.8385 1.7921 -28.5535 -4.6676 3.8871 9.9071 -0.7462 1.2592 7.6545 -0.0000 0.0000 0.0000 -75.4732 2.1366 52.7956 143.6827 -45.7302 -104.2507 -0.0000 0.0000 -2.8537 17.7065 1.3728 0.4382 -7.1250 0.0000 -0.0000 -7.0799 31.3731 2.3749 -0.0000 0.0000 0.0000 84.8762 -48.7142 25.8727 -67.4016 57.9796 -40.5620 0.0000 -0.0000 -18.4544 -34.9717 -2.7726 1.9378 7.1250 -0.0000 -0.0000 -6.8232 -33.3062 -1.9677
0.00 0.00 0.00 2.7726 3.6193 28.8484 0.0000 0.0000 0.0000 -21.1100 -5.1683 0.0447 4.4158 12.6941 38.2339 0.8690 -6.0460 20.8065 0.2058 2.9210 8.0589 0.0000 0.0000 0.0000 19.3901 3.4388 -58.8409 -16.7603 -19.7465 80.4893 -3.5291 4.3950 -34.6327 -1.9861 8.8371 -25.2872 2.1151 -2.9197 19.9397 3.5044 -2.9215 -0.7234 3.5698 -1.3472 -11.9608 -1.9054 1.4856 -28.6154 -4.6039 3.4112 8.4256 -0.7843 1.0777 7.1495 0.0000 -0.0000 0.0000 -77.6032 9.2544 52.6753 132.8335 -51.7868 -96.0708 -0.0000 0.0000 -9.2703 13.8419 6.0559 1.4891 -7.1250 0.0000 -0.0000 -10.7856 36.0348 2.4119 0.0000 -0.0000 0.0000 89.2805 -39.6897 19.7292 -62.2391 56.8776 -36.2103 0.0000 -0.0000 -21.4479 -35.9695 -3.3300 2.4139 7.1250 -0.0000 -0.0000 -7.6798 -34.0156 -2.0853
0.00 0.00 0.00 1.5378 2.4245 29.1108 0.0000 0.0000 0.0000 -19.6761 -6.1401 -6.9779 7.6575 15.8615 51.3194 0.5697 -4.8748 16.8691 0.0771 1.7916 4.9301 0.0000 0.0000 0.0000 20.6055 4.8177 -55.0242 -16.0982 -19.6310 78.5241 -3.6768 3.7685 -35.5050 -2.1974 9.2656 -26.6298 2.7355 -2.2660 20.2671 3.5100 -1.9139 -0.1876 2.9126 -0.9199 -11.5966 -1.9551 1.2701 -28.4093 -4.6227 3.0583 6.9538 -0.8332 0.9486 6.6188 0.0000 -0.0000 0.0000 -80.1688 13.1274 49.8651 119.0841 -56.5491 -84.8957 -0.0000 0.0000 -10.2086 14.3883 6.1278 1.5686 -7.1250 0.0000 -0.0000 -10.3454 36.1374 2.2844 0.0000 -0.0000 0.0000 90.8874 -32.0678 16.8274 -58.5474 55.9103 -33.1352 0.0000 -0.0000 -18.2394 -36.2121 -2.4564 1.7975 7.1250 -0.0000 -0.0000 -7.8078 -32.9526 -2.3232
0.00 0.00 0.00 -0.3608 1.6380 28.5760 0.0000 0.0000 0.0000 -17.1617 -6.4430 -13.6085 11.4682 18.1567 64.2928 0.3040 -2.2754 11.5034 0.0236 0.9915 2.7253 0.0000 0.0000 0.0000 22.4385 5.3386 -50.1472 -15.3938 -19.4835 76.4202 -3.7537 4.0641 -35.8355 -2.5575 9.9417 -28.7880 4.3975 -1.8492 21.1476 3.6633 -0.9261 0.5014 1.8475 -0.5466 -11.3629 -2.0424 1.0798 -27.9430 -4.6679 2.7609 5.7205 -0.8744 0.8386 6.1374 -0.0000 0.0000 0.0000 -83.1524 15.4599 45.0442 97.3176 -59.7967 -66.3329 -0.0000 0.0000 -6.9440 15.0922 5.1101 1.3760 -7.1250 0.0000 -0.0000 -9.6129 35.1384 2.3558 -0.0000 0.0000 0.0000 91.2005 -23.7622 15.9896 -55.4311 54.9641 -30.5686 0.0000 -0.0000 -14.8711 -37.0990 -1.7737 1.3409 7.1250 -0.0000 -0.0000 -8.4615 -32.1273 -2.6915
0.00 0.00 0.00 -2.2613 0.3966 28.2359 0.0000 0.0000 0.0000 -14.2677 -6.2873 -21.1336 15.3703 19.4782 76.3498 0.1544 -0.3750 7.5672 0.0308 1.1331 3.1151 0.0000 0.0000 0.0000 24.1844 6.1000 -45.4508 -14.6150 -19.2901 74.0743 -3.7647 4.2682 -35.8525 -2.8642 10.4719 -30.5187 5.5741 -1.2059 22.0556 3.8082 0.2654 0.9243 0.9823 -0.0517 -11.3814 -2.1225 0.9635 -27.3237 -4.9435 2.6094 4.9955 -0.9713 0.7672 5.8142 -0.0000 -0.0000 0.0000 -86.0011 16.2179 38.8773 69.9108 -58.4188 -42.6946 -0.0000 0.0000 -4.0518 17.8114 3.1247 1.0033 -7.1250 0.0000 -0.0000 -7.1575 33.2005 2.0838 -0.0000 -0.0000 0.0000 90.2555 -15.3447 17.4770 -54.3280 54.5986 -29.6674 0.0000 -0.0000 -16.0779 -38.7942 -2.5896 2.0800 7.1250 -0.0000 -0.0000 -9.9155 -33.1825 -2.9091
0.00 0.00 0.00 -4.7274 -2.4865 28.0343 0.0000 0.0000 0.0000 -8.7281 -5.3440 -37.2173 22.0277 19.9011 95.9379 0.0109 0.2464 -2.0793 0.2360 -3.1266 -8.6314 0.0000 0.0000 0.0000 26.2491 6.1695 -36.3802 -12.8149 -18.7143 68.5497 -3.8794 5.2624 -36.2525 -3.1707 10.9663 -32.1664 6.6131 0.1960 23.0844 3.8597 2.4493 0.9486 -0.2402 0.8846 -11.8257 -2.9218 0.7278 -25.8328 -4.9773 2.5205 5.2965 -0.8657 0.7165 5.6913 -0.0000 0.0000 0.0000 -88.0774 19.8099 28.3233 40.0729 -48.1130 -18.4935 -0.0000 0.0000 -9.8668 27.4555 -2.2247 -1.1555 -7.1250 0.0000 -0.0000 0.6682 27.4728 -0.2846 -0.0000 0.0000 0.0000 86.7779 -0.1860 23.6589 -59.9969 56.3091 -34.3385 0.0000 -0.0000 -18.9506 -38.3947 -0.7232 0.5730 7.1250 -0.0000 -0.0000 -9.3803 -30.8239 -3.2880
0.00 0.00 0.00 -6.0873 -5.1442 27.4642 0.0000 0.0000 0.0000 -4.1565 -3.4513 -53.3014 25.7947 19.1751 107.1696 0.2232 -3.0328 -8.3934 0.0007 0.1660 0.4560 0.0000 0.0000 0.0000 26.8832 3.6995 -25.5840 -10.1104 -17.4715 59.8569 -3.9961 6.6907 -36.6211 -3.5014 11.4656 -33.8666 7.2526 1.0253 24.0314 2.7494 3.6670 0.6803 -2.2732 1.3322 -12.4758 -2.1418 0.7366 -25.8790 -4.0250 2.2181 6.4333 -0.7133 0.6445 6.0543 0.0000 0.0000 0.0000 -82.5032 33.8895 30.9208 50.2157 -53.0821 -26.3465 -0.0000 0.0000 -9.6541 25.4607 -4.2690 -2.0299 -7.1250 0.0000 -0.0000 -0.8910 25.2535 0.4258 0.0000 0.0000 0.0000 84.4376 10.8029 31.9626 -82.6958 59.7974 -53.6787 0.0000 -0.0000 -12.4399 -35.5418 1.0022 -0.7159 7.1250 -0.0000 -0.0000 -6.9744 -28.7196 -2.7839
0.00 0.00 0.00 -6.2436 -5.3769 27.0912 0.0000 0.0000 0.0000 -2.3049 -3.5609 -60.8644 26.4241 18.9803 109.0950 0.4614 -5.3921 -12.1216 0.0221 -0.9589 -2.6358 0.0000 0.0000 0.0000 26.9096 1.3321 -19.7264 -8.4444 -16.4365 54.1479 -3.9070 7.5909 -36.0841 -3.6443 11.6714 -34.5793 7.8081 1.3863 24.2586 2.0925 4.2559 0.3271 -3.5413 1.5147 -12.8674 -1.9874 0.1802 -25.4189 -3.5849 1.3664 6.7595 -0.6965 0.2742 6.0788 -0.0000 -0.0000 0.0000 -77.0310 40.9289 36.2476 61.8307 -56.7784 -35.8685 -0.0000 0.0000 -11.0646 23.4422 -3.8119 -1.6512 -7.1250 0.0000 -0.0000 -2.4106 25.8252 1.1206 -0.0000 -0.0000 0.0000 81.9423 13.4539 34.7018 -99.9326 59.6239 -68.5910 0.0000 -0.0000 -13.0840 -33.9228 0.5908 -0.3973 7.1250 -0.0000 -0.0000 -5.7514 -29.2461 -2.2184
0.00 0.00 0.00 -5.8348 -5.1345 27.2981 0.0000 0.0000 0.0000 -1.2123 -4.7816 -68.5418 26.1928 19.0545 108.3853 0.6742 -7.7067 -14.7944 0.1118 -2.1557 -5.9361 0.0000 0.0000 0.0000 26.4688 -0.3704 -14.1856 -6.7592 -15.1257 47.9576 -3.5150 7.9423 -34.0884 -3.8919 12.0151 -35.7856 7.7305 1.9769 23.2798 1.5660 4.8792 -0.1029 -4.2526 1.7883 -12.7067 -2.1902 -0.6057 -24.9857 -3.1670 0.3323 7.2718 -0.6524 -0.2010 6.1691 0.0000 -0.0000 0.0000 -70.7257 46.6777 42.6881 75.1441 -59.1494 -47.1712 -0.0000 0.0000 -16.5096 23.7789 -4.4864 -1.9740 -7.1250 0.0000 -0.0000 -2.1587 25.0789 1.0409 0.0000 -0.0000 0.0000 78.1285 14.4580 35.5577 -116.6971 57.1277 -82.8974 0.0000 -0.0000 -15.7128 -31.3905 1.7236 -1.0514 7.1250 -0.0000 -0.0000 -3.7168 -27.9545 -1.5438
0.00 0.00 0.00 -3.8500 -1.5658 26.8825 0.0000 0.0000 0.0000 -0.5371 -9.6834 -78.9832 23.5118 19.7017 100.3171 0.6022 -15.3296 -16.4044 0.3480 -3.7901 -10.4869 0.0000 0.0000 0.0000 26.4842 -2.1178 -1.1641 -3.7488 -11.8184 35.0925 -1.5460 5.1444 -22.3996 -4.7736 13.1242 -39.8350 7.1693 2.1098 20.8115 0.9363 4.6462 -0.5442 -4.4308 1.7460 -11.8337 -2.7260 -2.0197 -24.5657 -1.8569 -1.5594 8.1427 -0.3692 -1.0236 6.3879 -0.0000 -0.0000 0.0000 -65.2334 53.7098 46.5341 96.4081 -59.8443 -65.5467 -0.0000 0.0000 -26.2368 18.5652 -3.9518 -1.3260 -7.1250 0.0000 -0.0000 -6.0948 25.8060 2.8490 -0.0000 -0.0000 0.0000 70.0164 12.4758 35.9350 -136.4682 50.0286 -98.8925 0.0000 -0.0000 -19.6604 -33.0195 3.4742 -2.2553 7.1250 -0.0000 -0.0000 -4.8414 -25.8349 -2.2553
